<svg viewBox="0 0 49 43" xmlns="http://www.w3.org/2000/svg" data-logo="logo">
        <g transform="translate(0, 1) rotate(0)" id="logogram" style="opacity: 1;"><path fill="#028B5D" d="M5.8562 2.83447H14.8992V0.399902H20.4646V2.83447H29.8562V0.399902H35.4216V22.8345C35.4216 32.5354 27.5571 40.3998 17.8562 40.3999C8.1552 40.3999 0.290771 32.5355 0.290771 22.8345V0.399902H5.8562V2.83447ZM29.8542 22.9165C29.1413 23.0666 28.4417 23.2809 27.7654 23.561C26.3306 24.1553 25.0266 25.0264 23.9285 26.1245C22.8303 27.2227 21.9593 28.5266 21.365 29.9614C20.7707 31.3962 20.4646 32.9339 20.4646 34.4868V34.5464C25.8117 33.3607 29.8162 28.6115 29.8542 22.9165ZM5.85815 22.9946C5.93048 28.531 9.75126 33.1617 14.8992 34.4663C14.8965 32.9203 14.5905 31.3899 13.9988 29.9614C13.4045 28.5266 12.5335 27.2227 11.4353 26.1245C10.3373 25.0265 9.03396 24.1553 7.59937 23.561C7.0334 23.3266 6.45078 23.1382 5.85815 22.9946ZM17.6824 14.7026C17.0165 15.7338 16.243 16.6948 15.3708 17.5669C14.4987 18.439 13.5378 19.2126 12.5066 19.8784C13.5376 20.5442 14.4989 21.317 15.3708 22.189C16.2427 23.0608 17.0167 24.0215 17.6824 25.0522C18.348 24.0216 19.1212 23.0607 19.9929 22.189C20.8647 21.3172 21.8255 20.5441 22.8562 19.8784C21.8254 19.2127 20.8647 18.4387 19.9929 17.5669C19.121 16.6949 18.3481 15.7336 17.6824 14.7026ZM20.8904 8.3999C21.0203 8.87315 21.1764 9.3401 21.365 9.79541C21.9593 11.23 22.8305 12.5333 23.9285 13.6313C25.0266 14.7295 26.3306 15.6015 27.7654 16.1958C28.4422 16.4761 29.1427 16.6892 29.8562 16.8394V8.3999H20.8904ZM5.8562 16.7612C6.44943 16.6176 7.03285 16.4305 7.59937 16.1958C9.03412 15.6015 10.3372 14.7295 11.4353 13.6313C12.5333 12.5333 13.4045 11.23 13.9988 9.79541C14.1874 9.34006 14.3444 8.8732 14.4744 8.3999H5.8562V16.7612Z"></path></g>
        <g transform="translate(42, 21.5)" id="logotype" style="opacity: 1;"><path d="M6 0L6 0L6 0L6 0L6 0L6 0L6 0L6 0L6 0L6 0L6 0L6 0L6 0L6 0ZM6 0L6 0Q6 0 6 0Q6 0 6 0Q6 0 6 0L6 0Q6 0 6 0Q6 0 6 0Q6 0 6 0L6 0Q6 0 6 0Q6 0 6 0Q6 0 6 0L6 0Q6 0 6 0Q6 0 6 0Q6 0 6 0ZM6 0L6 0Q6 0 6 0Q6 0 6 0L6 0Q6 0 6 0Q6 0 6 0L6 0Q6 0 6 0Q6 0 6 0L6 0Q6 0 6 0Q6 0 6 0ZM6 0L6 0Q6 0 6 0Q6 0 6 0Q6 0 6 0L6 0Q6 0 6 0Q6 0 6 0Q6 0 6 0L6 0Q6 0 6 0Q6 0 6 0Q6 0 6 0L6 0L6 0Q6 0 6 0Q6 0 6 0L6 0Q6 0 6 0Q6 0 6 0L6 0Q6 0 6 0Q6 0 6 0L6 0Q6 0 6 0Q6 0 6 0L6 0L6 0Q6 0 6 0Q6 0 6 0Q6 0 6 0ZM6 0L6 0L6 0L6 0L6 0L6 0L6 0L6 0L6 0L6 0L6 0L6 0L6 0ZM6 0L6 0L6 0L6 0L6 0L6 0L6 0L6 0L6 0L6 0L6 0L6 0L6 0L6 0ZM6 0L6 0Q6 0 6 0Q6 0 6 0Q6 0 6 0L6 0Q6 0 6 0Q6 0 6 0Q6 0 6 0L6 0Q6 0 6 0Q6 0 6 0Q6 0 6 0L6 0Q6 0 6 0Q6 0 6 0Q6 0 6 0ZM6 0L6 0Q6 0 6 0Q6 0 6 0L6 0Q6 0 6 0Q6 0 6 0L6 0Q6 0 6 0Q6 0 6 0L6 0Q6 0 6 0Q6 0 6 0ZM6 0L6 0L6 0L6 0L6 0L6 0Q6 0 6 0Q6 0 6 0L6 0L6 0L6 0L6 0Q6 0 6 0Q6 0 6 0Q6 0 6 0L6 0L6 0ZM6 0L6 0Q6 0 6 0Q6 0 6 0Q6 0 6 0L6 0L6 0Q6 0 6 0Q6 0 6 0L6 0Q6 0 6 0Q6 0 6 0L6 0L6 0Q6 0 6 0Q6 0 6 0L6 0Q6 0 6 0Q6 0 6 0Q6 0 6 0L6 0Q6 0 6 0Q6 0 6 0Q6 0 6 0L6 0Q6 0 6 0Q6 0 6 0L6 0L6 0L6 0L6 0Q6 0 6 0Q6 0 6 0Q6 0 6 0ZM6 0L6 0Q6 0 6 0Q6 0 6 0L6 0Q6 0 6 0Q6 0 6 0Q6 0 6 0L6 0Q6 0 6 0Q6 0 6 0L6 0Q6 0 6 0Q6 0 6 0ZM6 0L6 0Q6 0 6 0Q6 0 6 0Q6 0 6 0L6 0Q6 0 6 0Q6 0 6 0Q6 0 6 0L6 0Q6 0 6 0Q6 0 6 0Q6 0 6 0L6 0L6 0L6 0Q6 0 6 0Q6 0 6 0L6 0Q6 0 6 0Q6 0 6 0L6 0L6 0Q6 0 6 0Q6 0 6 0ZM6 0L6 0L6 0Q6 0 6 0Q6 0 6 0L6 0Q6 0 6 0Q6 0 6 0Z" fill="#3d3d3d"></path></g>

      </svg>